<svg width="283" height="171" viewBox="0 0 283 171" fill="none" xmlns="http://www.w3.org/2000/svg">
<rect x="0.5" y="0.5" width="282" height="170" rx="9.5" stroke="#D2D1D6" stroke-dasharray="6 6"/>
<path d="M141.5 64.3271V71.6535" stroke="#1A162E" stroke-width="1.5" stroke-linecap="round" stroke-linejoin="round"/>
<path d="M145.166 67.9904H137.833" stroke="#1A162E" stroke-width="1.5" stroke-linecap="round" stroke-linejoin="round"/>
<path fill-rule="evenodd" clip-rule="evenodd" d="M146.186 58H136.814C133.548 58 131.5 60.3121 131.5 63.5852V72.4148C131.5 75.6879 133.538 78 136.814 78H146.186C149.462 78 151.5 75.6879 151.5 72.4148V63.5852C151.5 60.3121 149.462 58 146.186 58Z" stroke="#1A162E" stroke-width="1.5" stroke-linecap="round" stroke-linejoin="round"/>
<path d="M89 108H90.764L91.772 105.424H97.148L98.142 108H99.934L95.496 97.038H93.466L89 108ZM94.46 98.69L96.546 103.898H92.388L94.46 98.69ZM100.498 104.248C100.498 105.284 100.848 106.194 101.548 106.964C102.248 107.734 103.13 108.112 104.18 108.112C104.572 108.112 105.02 108.014 105.524 107.804C106.042 107.594 106.42 107.272 106.686 106.838V108H108.31V96.604H106.644V101.588C106.392 101.182 106.028 100.888 105.538 100.692C105.062 100.482 104.628 100.384 104.222 100.384C103.116 100.384 102.206 100.776 101.52 101.56C100.834 102.344 100.498 103.24 100.498 104.248ZM104.432 101.882C105.09 101.882 105.622 102.106 106.042 102.568C106.462 103.03 106.672 103.59 106.672 104.248C106.672 104.906 106.462 105.466 106.042 105.928C105.636 106.376 105.09 106.6 104.432 106.6C103.774 106.6 103.228 106.376 102.808 105.928C102.402 105.466 102.192 104.906 102.192 104.248C102.192 103.59 102.402 103.03 102.808 102.568C103.228 102.106 103.774 101.882 104.432 101.882ZM110.028 104.248C110.028 105.284 110.378 106.194 111.078 106.964C111.778 107.734 112.66 108.112 113.71 108.112C114.102 108.112 114.55 108.014 115.054 107.804C115.572 107.594 115.95 107.272 116.216 106.838V108H117.84V96.604H116.174V101.588C115.922 101.182 115.558 100.888 115.068 100.692C114.592 100.482 114.158 100.384 113.752 100.384C112.646 100.384 111.736 100.776 111.05 101.56C110.364 102.344 110.028 103.24 110.028 104.248ZM113.962 101.882C114.62 101.882 115.152 102.106 115.572 102.568C115.992 103.03 116.202 103.59 116.202 104.248C116.202 104.906 115.992 105.466 115.572 105.928C115.166 106.376 114.62 106.6 113.962 106.6C113.304 106.6 112.758 106.376 112.338 105.928C111.932 105.466 111.722 104.906 111.722 104.248C111.722 103.59 111.932 103.03 112.338 102.568C112.758 102.106 113.304 101.882 113.962 101.882ZM131.396 108H133.188V97.038H131.48V105.116L126.076 97.038H124.046V108H125.74V99.558L131.396 108ZM142.576 104.752C142.59 104.626 142.604 104.458 142.604 104.234C142.604 103.072 142.282 102.148 141.638 101.434C140.994 100.72 140.098 100.37 138.964 100.37C137.886 100.37 136.99 100.748 136.276 101.504C135.562 102.26 135.198 103.17 135.198 104.248C135.198 105.354 135.576 106.292 136.318 107.034C137.074 107.776 138.012 108.14 139.118 108.14C140.462 108.14 141.68 107.496 142.31 106.334L141.106 105.536C140.7 106.306 140.028 106.698 139.09 106.698C138.516 106.698 138.012 106.516 137.578 106.152C137.144 105.774 136.92 105.312 136.906 104.752H142.576ZM138.964 101.798C140.028 101.798 140.854 102.442 140.91 103.492H136.99C137.144 102.47 137.942 101.798 138.964 101.798ZM153.308 100.524L151.74 105.816H151.712L150.004 100.524H148.324L146.63 105.802H146.616L145.048 100.524H143.298L145.692 108H147.4L149.136 102.75H149.164L150.886 108H152.622L155.016 100.524H153.308ZM165.188 108.126C166.574 108.126 167.806 107.678 168.632 107.006C169.458 106.334 169.99 105.592 170.256 104.822L168.688 104.108C168.422 104.822 167.96 105.41 167.316 105.858C166.686 106.292 165.986 106.516 165.23 106.516C164.222 106.516 163.34 106.138 162.598 105.396C161.856 104.64 161.492 103.674 161.492 102.498C161.492 101.308 161.87 100.356 162.612 99.614C163.354 98.872 164.236 98.494 165.23 98.494C166.952 98.494 168.1 99.474 168.646 100.888L170.2 100.174C169.962 99.39 169.43 98.648 168.646 97.99C167.862 97.318 166.644 96.884 165.258 96.884C163.732 96.884 162.43 97.43 161.324 98.508C160.218 99.586 159.672 100.93 159.672 102.554C159.672 104.276 160.344 105.746 161.394 106.684C162.444 107.594 163.788 108.126 165.188 108.126ZM176.066 102.932C176.066 103.352 175.828 103.562 175.366 103.562H174.442C173.126 103.562 171.334 104.108 171.334 105.844V105.928C171.334 106.572 171.572 107.104 172.048 107.51C172.524 107.916 173.126 108.126 173.854 108.126C174.862 108.126 175.59 107.748 176.052 106.978V108H177.69V103.24C177.69 102.722 177.606 102.274 177.438 101.896C176.976 100.874 176.038 100.37 174.638 100.37C173.112 100.37 172.048 101 171.46 102.274L172.734 103.002C173.112 102.204 173.742 101.812 174.596 101.812C175.534 101.812 176.066 102.316 176.066 102.932ZM176.052 104.976C176.052 106.096 175.324 106.796 174.19 106.796C173.476 106.796 173 106.39 173 105.774C173 105.452 173.154 105.2 173.448 105.018C173.756 104.836 174.092 104.738 174.442 104.738H176.052V104.976ZM183.937 100.496C183.839 100.468 183.713 100.454 183.531 100.454C182.621 100.454 181.935 100.874 181.473 101.714V100.524H179.849V108H181.515V104.206C181.515 102.904 182.187 102.162 183.461 102.162C183.643 102.162 183.797 102.176 183.937 102.204V100.496ZM184.663 104.248C184.663 105.284 185.013 106.194 185.713 106.964C186.413 107.734 187.295 108.112 188.345 108.112C188.737 108.112 189.185 108.014 189.689 107.804C190.207 107.594 190.585 107.272 190.851 106.838V108H192.475V96.604H190.809V101.588C190.557 101.182 190.193 100.888 189.703 100.692C189.227 100.482 188.793 100.384 188.387 100.384C187.281 100.384 186.371 100.776 185.685 101.56C184.999 102.344 184.663 103.24 184.663 104.248ZM188.597 101.882C189.255 101.882 189.787 102.106 190.207 102.568C190.627 103.03 190.837 103.59 190.837 104.248C190.837 104.906 190.627 105.466 190.207 105.928C189.801 106.376 189.255 106.6 188.597 106.6C187.939 106.6 187.393 106.376 186.973 105.928C186.567 105.466 186.357 104.906 186.357 104.248C186.357 103.59 186.567 103.03 186.973 102.568C187.393 102.106 187.939 101.882 188.597 101.882Z" fill="#D2D1D6"/>
</svg>
